<?xml version="1.0" encoding="utf-8"?>
<!-- Generator: Adobe Illustrator 15.1.0, SVG Export Plug-In . SVG Version: 6.00 Build 0)  -->
<!DOCTYPE svg PUBLIC "-//W3C//DTD SVG 1.1//EN" "http://www.w3.org/Graphics/SVG/1.1/DTD/svg11.dtd">
<svg version="1.1" id="InteractiveSVG" xmlns="http://www.w3.org/2000/svg" xmlns:xlink="http://www.w3.org/1999/xlink" x="0px"
	 y="0px" width="1024px" height="1388px" viewBox="0 0 1024 1388" enable-background="new 0 0 1024 1388" xml:space="preserve">
<g id="background">
	<rect y="297.986" fill="#E8EFEF" width="1023.91" height="1090"/>
	<g>
		<line fill="none" stroke="#CADBDD" stroke-miterlimit="10" x1="950.369" y1="1252.486" x2="565.455" y2="1252.486"/>
		<line fill="none" stroke="#CADBDD" stroke-miterlimit="10" x1="950.369" y1="1177.577" x2="565.455" y2="1177.577"/>
		<line fill="none" stroke="#CADBDD" stroke-miterlimit="10" x1="950.369" y1="1102.668" x2="565.455" y2="1102.668"/>
		<line fill="none" stroke="#CADBDD" stroke-miterlimit="10" x1="950.369" y1="1027.758" x2="565.455" y2="1027.758"/>
		<line fill="none" stroke="#CADBDD" stroke-miterlimit="10" x1="950.369" y1="952.85" x2="565.455" y2="952.85"/>
		<line fill="none" stroke="#CADBDD" stroke-miterlimit="10" x1="950.369" y1="877.94" x2="565.455" y2="877.94"/>
		<line fill="none" stroke="#CADBDD" stroke-miterlimit="10" x1="950.369" y1="803.031" x2="565.455" y2="803.031"/>
		<line fill="none" stroke="#CADBDD" stroke-miterlimit="10" x1="950.369" y1="728.123" x2="565.455" y2="728.122"/>
		<line fill="none" stroke="#CADBDD" stroke-miterlimit="10" x1="950.369" y1="653.214" x2="565.455" y2="653.214"/>
		<line fill="none" stroke="#CADBDD" stroke-miterlimit="10" x1="950.369" y1="578.305" x2="565.455" y2="578.305"/>
		<line fill="none" stroke="#CADBDD" stroke-miterlimit="10" x1="950.369" y1="503.396" x2="565.455" y2="503.396"/>
		<line fill="none" stroke="#CADBDD" stroke-miterlimit="10" x1="950.369" y1="428.486" x2="565.455" y2="428.486"/>
	</g>
	<g>
		<line fill="none" stroke="#CADBDD" stroke-miterlimit="10" x1="458.454" y1="1252.486" x2="89.467" y2="1252.486"/>
		<line fill="none" stroke="#CADBDD" stroke-miterlimit="10" x1="458.454" y1="1177.577" x2="89.467" y2="1177.577"/>
		<line fill="none" stroke="#CADBDD" stroke-miterlimit="10" x1="458.454" y1="1102.668" x2="89.467" y2="1102.668"/>
		<line fill="none" stroke="#CADBDD" stroke-miterlimit="10" x1="458.454" y1="1027.758" x2="89.467" y2="1027.758"/>
		<line fill="none" stroke="#CADBDD" stroke-miterlimit="10" x1="458.454" y1="952.85" x2="89.467" y2="952.85"/>
		<line fill="none" stroke="#CADBDD" stroke-miterlimit="10" x1="458.454" y1="877.94" x2="89.467" y2="877.94"/>
		<line fill="none" stroke="#CADBDD" stroke-miterlimit="10" x1="458.454" y1="803.031" x2="89.467" y2="803.031"/>
		<line fill="none" stroke="#CADBDD" stroke-miterlimit="10" x1="458.454" y1="728.122" x2="89.467" y2="728.122"/>
		<line fill="none" stroke="#CADBDD" stroke-miterlimit="10" x1="458.454" y1="653.214" x2="89.467" y2="653.214"/>
		<line fill="none" stroke="#CADBDD" stroke-miterlimit="10" x1="458.454" y1="578.305" x2="89.467" y2="578.305"/>
		<line fill="none" stroke="#CADBDD" stroke-miterlimit="10" x1="458.454" y1="503.396" x2="89.467" y2="503.396"/>
		<line fill="none" stroke="#CADBDD" stroke-miterlimit="10" x1="458.454" y1="428.486" x2="89.467" y2="428.486"/>
	</g>
</g>

<g id="timeline">
	<g id="viva">
		<rect x="505.545" y="429" fill="#5B4F35" width="17" height="107"/>
		<polyline fill="#5B4F35" points="509.334,474.132 497.023,483.456 514.566,494.415 		"/>
		<g>
			<text transform="matrix(1 0 0 1 565.5449 494.2139)" fill="#5B4F35" font-family="'LeagueGothic'" font-size="28.2251">9AM</text>
		</g>
		<g id="viva-badge">
			<circle fill="#5B4F35" cx="311.581" cy="380.273" r="130.5"/>
			<g id="coffee-title">
				<text transform="matrix(1 0 0 1 284.416 403.2793)" fill="#FFFFFF" font-family="'LeagueGothic'" font-size="28.2251">COFFEE</text>
			</g>
			<g id="viva-details">
				<g id="viva-icon">
					<path fill="#E5E2DF" d="M309.772,453.977c0,0-33.564-4.988-33.564-17.213c0-12.221,25.302-18.59,36.662-18.069
						c11.36,0.517,43.72,5.336,36.146,19.447C341.443,452.255,309.772,453.977,309.772,453.977z"/>
					<ellipse fill="#3F3524" cx="311.706" cy="501.148" rx="31" ry="14.875"/>
					<path fill="#B2AFAB" d="M310.105,452.25c0,0-30.283-4.311-30.283-14.859c0-10.551,22.829-16.049,33.078-15.603
						c10.249,0.446,39.441,4.604,32.608,16.791C338.68,450.765,310.105,452.25,310.105,452.25z"/>
					<path fill="#4C3C29" d="M310.308,453.28c0,0-28.29-4.025-28.29-13.881c0-9.856,21.327-14.993,30.902-14.576
						c9.575,0.417,36.85,4.304,30.466,15.687S310.308,453.28,310.308,453.28z"/>
					<path fill="#5B4F35" d="M308.74,427.438c0,0-25.475,1.38-22.893,13.081c2.582,11.704,40.105,6.717,49.572,5.164
						c9.467-1.55-7.717-6.643-23.194-9.261C298.425,434.088,308.74,427.438,308.74,427.438z"/>
					<path fill="#D3CFC9" d="M276.208,436.764l6.196,65.063c0,0,30.466,21.171,59.383,0l7.746-65.063
						C349.533,436.764,315.969,469.295,276.208,436.764z"/>
					<path fill="#C1BCB4" d="M310.547,453.029c0,0,21.171,0.671,38.47-11.932l-7.229,60.729c0,0-12.646,9.253-27.624,9.398
						c0,0,19.362-0.71,20.911-8.714s9.145-60.402,4.815-56.801C336.796,448.297,310.547,453.029,310.547,453.029z"/>
					<circle fill="#E5E2DF" cx="312.225" cy="475.104" r="14.071"/>
				</g>
				<rect x="219.11" y="530.174" fill="none" width="187" height="68"/>
				<text transform="matrix(1 0 0 1 219.7134 543.4023)" fill="#CEB995" font-family="'LeagueGothic'" font-size="18">DESIGNERS DRINK AN AVERAGE OF 380 </text>
				<text transform="matrix(1 0 0 1 249.6372 565.0039)" fill="#CEB995" font-family="'LeagueGothic'" font-size="18">CUPS OF COFFEE PER YEAR</text>
			</g>
		</g>
	</g>

	<g id="itmg">
		<rect x="505.545" y="536" fill="#D1652F" width="17" height="135"/>
		<polyline fill="#D1652F" points="520.256,614.415 532.566,605.092 515.023,594.132 "/>
		<text transform="matrix(1 0 0 1 413.2793 616.6328)" fill="#D1652F" font-family="'LeagueGothic'" font-size="28.2251">10.2014-11.2015</text>
		<g id="itmg-badge">
			<circle fill="#D1652F" cx="711" cy="604.5" r="130.5"/>
			<g id="itmg-title">
				<text transform="matrix(1 0 0 1 682.4639 523.5059)" fill="#FFFFFF" font-family="'LeagueGothic'" font-size="28.2251">ITMG</text>
			</g>
			<g id="itmg-details">
				<rect x="616.468" y="650.4" fill="none" width="187" height="68"/>
				<text transform="matrix(1 0 0 1 630.1738 663.6289)" fill="#E8AD67" font-family="'LeagueGothic'" font-size="18">WORLDWIDE, A NEW WEB PAGE IS </text>
				<text transform="matrix(1 0 0 1 637.2568 685.2305)" fill="#E8AD67" font-family="'LeagueGothic'" font-size="18">DESIGNED EVERY 0.4 SECONDS</text>
				<g>
					<ellipse fill="#B24E2B" cx="702.667" cy="626.357" rx="28.333" ry="3.108"/>
					<path fill="#E8AD67" d="M747.848,571.088c-1.031-1.348-2.066-2.696-3.104-4.044c-0.12-0.09-0.126-0.073-0.021,0.049
						c-6.992-6.938-16.916-17.188-26.563-20.604c-6.818,0.049-34.996,29.881-34.142,30.987c3.136,4.072,7.953,7.688,11.637,11.258
						c6.826,6.612,14.438,18.08,22.894,22.438c1.931,0.993,13.041-11.333,14.405-12.698
						C740.178,591.256,756.135,581.434,747.848,571.088C746.795,569.753,748.896,572.398,747.848,571.088z"/>
					<path fill="#E8AD67" d="M747.744,565.267c-0.063-0.094-0.163-0.25-0.324-0.492C747.55,564.969,747.67,565.153,747.744,565.267z
						"/>
					<path fill="#FFCBA6" d="M674.914,620.213c0.208,0.291,0.407,0.587,0.604,0.885c0.246,0.143,0.49,0.287,0.734,0.438
						c0.109,0.005,0.215,0.02,0.324,0.021l42.611-9.315l-35.033-35.034l-9.229,42.196
						C674.922,619.673,674.912,619.943,674.914,620.213z"/>
					<path fill="#FF9740" d="M744.743,567.044c-5.46-5.326-9.369-9.872-15.87-14.435c-10.965,11.813-23.418,23.102-34.816,34.499
						c2.159,2.154,12.971,15.569,15.816,14.505c3.752-1.406,6.417-6.339,9.303-9.068
						C721.91,589.957,745.939,568.634,744.743,567.044C744.712,567.025,744.813,567.135,744.743,567.044z"/>
					<path fill="#FA871C" d="M747.848,571.088c-1.156-1.463-2.191-3.245-3.193-4.101c0.431,0.597-21.375,21.366-23.58,23.567
						c-1.896,1.896-12.609,10.944-10.925,12.646c2.837,2.854,5.636,6.324,8.563,9.084c1.121,1.056,9.459-8.576,10.964-10.082
						c5.245-5.244,9.55-9.049,14.794-14.293C751.135,581.246,753.733,578.44,747.848,571.088
						C746.795,569.753,749.34,572.971,747.848,571.088z"/>
					<path fill="#FFCBA6" d="M694.057,587.108c0,0,0.004-9.531-9.896-9.901l0.313,4.566L694.057,587.108z"/>
					<path fill="#FFCBA6" d="M718.831,611.882c0,0,0.003-9.531-9.901-9.897l0.313,4.563L718.831,611.882z"/>
					<path fill="#FFCBA6" d="M709.29,602.341c0,0,0.005-14.862-15.44-15.438l0.489,7.119L709.29,602.341z"/>
					<path fill="#3A2F19" d="M674.938,618.93c-0.016,0.432-0.021,0.855-0.021,1.283c0.208,0.291,0.407,0.587,0.604,0.885
						c0.244,0.143,0.488,0.287,0.732,0.438c0.218,0.009,0.426,0.037,0.646,0.051l7.57-1.656l-0.045-0.045
						c0-0.026-0.006-7.65-7.94-7.957v0.017l-0.016-0.017L674.938,618.93z"/>
				</g>
			</g>
		</g>
	</g>

	<g id="yr">
		<rect x="505.545" y="657" fill="#6DBACC" width="17" height="283"/>
		<polyline fill="#6DBACC" points="520.256,1010.415 532.566,1001.092 515.023,990.133 "/>
		<text transform="matrix(1 0 0 1 407.2793 1007.6328)" fill="#6DBACC" font-family="'LeagueGothic'" font-size="28.2251">02.2016</text>
		<g id="yr-badge">
			<circle fill="#6DBACC" cx="717" cy="780" r="130.5"/>
			<g id="yr-title">
				<text transform="matrix(1 0 0 1 680.0996 916.1816)" fill="#FFFFFF" font-family="'LeagueGothic'" font-size="24.3935">Yves Rocher</text>
				<text transform="matrix(1 0 0 1 684.5508 940.2686)" fill="#FFFFFF" font-family="'LeagueGothic'" font-size="24.3935">ABOUT IE</text>
			</g>
			<g id="yr-details">
				<rect x="622.892" y="1046.4" fill="none" width="187" height="68"/>
				<text transform="matrix(1 0 0 1 637.332 1059.6289)" fill="#B9E4EA" font-family="'LeagueGothic'" font-size="18">BROWSER QUIRKS CAN INCREASE </text>
				<text transform="matrix(1 0 0 1 646.9707 1081.2305)" fill="#B9E4EA" font-family="'LeagueGothic'" font-size="18">PRODUCTION TIME UP TO 71%</text>
				<g>
					<path fill="#004F84" d="M743.486,1005.52c-4.162-0.008-12.915-0.396-16.066-0.526c-3.182-0.132-4.639,5.476-11.518,5.478
						c-17.875,0.006-16.861-11.994-11.955-11.994c3.914,0,28.607,0,40.521-0.199c4.507-1.771,3.23-14.997-5.068-24.89
						c-8.82-10.506-18.236-10.804-18.236-10.804c7.334-5.055,18.039-5.946,21.012-4.561c2.978,1.39,3.646,0.299,3.646,0.299
						c-8.25-10.704-30.804,3.068-30.804,3.068c-30.229,2.577-33.005,29.438-33.005,29.438c2.68-3.271,7.83-6.046,9.416-7.533
						s1.586,0,1.586,0c-33.006,43.709,1.094,44.604-2.771,42.421c-3.865-2.181-2.678-13.578-2.678-13.578
						c1.092,1.288,9.813,15.267,28.741,14.569c18.935-0.693,26.813-16.422,27.807-19.099
						C744.445,1006.699,744.143,1006.021,743.486,1005.52z M705.677,978.724c6.381-3.635,18.079-2.974,21.624,2.812
						s-0.354,6.604-1.949,7.27c-1.596,0.661-19.675,0-19.675,0C700.005,988.801,699.297,982.358,705.677,978.724z"/>
					<path opacity="0.56" fill="#0097C0" enable-background="new    " d="M736.968,978.469c-1.242,0.969-5.843-2.894-12.034-5.953
						c-6.126-3.184-11.961-4.606-11.914-6.185c-0.05-1.521,7.019-2.601,14.447,1.188
						C734.916,971.273,738.221,977.61,736.968,978.469z"/>
					<path opacity="0.56" fill="#0097C0" enable-background="new    " d="M698.653,1009.835c5.729,4.177,17.164,7.82,10.646,8.689
						c-6.518,0.87-17.164-6.082-15.856-9.993C694.743,1004.62,696.565,1008.313,698.653,1009.835z"/>
					<ellipse fill="#448FAA" cx="713.667" cy="1032.357" rx="19.667" ry="2.024"/>
				</g>
			</g>
		</g>
	</g>
</g>
</svg>
